<svg width="79" height="74" viewBox="0 0 79 74" fill="none" xmlns="http://www.w3.org/2000/svg">
<path fill-rule="evenodd" clip-rule="evenodd" d="M39.4568 60.6574H39.3565C37.9555 60.6782 36.5298 61.548 35.1288 62.4669C33.9839 63.2179 32.8637 64.018 31.7204 64.018C30.5755 64.018 29.4553 63.2179 28.3104 62.4669C26.8924 61.5376 25.4513 60.6574 24.0333 60.6574C22.6138 60.6574 21.1726 61.5376 19.7546 62.4669C18.6098 63.2179 17.4895 64.018 16.3447 64.018C15.1967 64.018 14.0132 63.2165 12.8359 62.4624C11.3825 61.5317 9.93828 60.6574 8.65916 60.6574C7.6084 60.6574 6.50361 61.0463 5.46982 61.6163C4.04874 62.3971 2.75727 63.5119 1.95184 64.2095C1.63553 64.4841 1.61087 64.9532 1.89632 65.2575C2.18022 65.5618 2.66935 65.5855 2.98566 65.3124C3.73091 64.6652 4.92051 63.6276 6.23512 62.9047C7.02512 62.4698 7.85836 62.1418 8.65916 62.1418C9.12514 62.1418 9.61117 62.3288 10.1188 62.5826C10.7252 62.8869 11.3485 63.2937 11.9811 63.6989C13.4284 64.6251 14.9328 65.5024 16.3447 65.5024C17.7642 65.5024 19.2053 64.6237 20.6233 63.6929C21.7682 62.9433 22.8884 62.1418 24.0333 62.1418C25.1766 62.1418 26.2968 62.9433 27.4417 63.6929C28.8597 64.6237 30.3008 65.5024 31.7204 65.5024C33.1384 65.5024 34.5795 64.6237 35.9975 63.6929C37.1424 62.9433 38.2625 62.1418 39.4059 62.1418C40.5507 62.1418 41.671 62.9433 42.8158 63.6929C44.2338 64.6237 45.675 65.5024 47.0945 65.5024C48.5125 65.5024 49.9536 64.6237 51.3716 63.6929C52.5165 62.9433 53.6367 62.1418 54.7816 62.1418C55.9249 62.1418 57.0451 62.9433 58.19 63.6929C59.608 64.6237 61.0491 65.5024 62.4687 65.5024C63.882 65.5024 65.3787 64.6251 66.8214 63.6974C67.4524 63.2937 68.0743 62.8869 68.6806 62.5841C69.1914 62.3288 69.682 62.1418 70.1557 62.1418C70.9719 62.1418 71.8314 62.4713 72.6507 62.9092C74.0085 63.6351 75.249 64.6741 76.0267 65.3213C76.3476 65.59 76.8352 65.5558 77.1145 65.2471C77.3938 64.9369 77.3583 64.4678 77.0358 64.1991C76.2011 63.5029 74.8602 62.3911 73.399 61.6119C72.339 61.0448 71.2126 60.6574 70.1557 60.6574C68.8581 60.6574 67.4138 61.5332 65.965 62.4624C64.7923 63.2165 63.6166 64.018 62.4687 64.018C61.3238 64.018 60.2036 63.2179 59.0587 62.4669C57.6407 61.5376 56.1996 60.6574 54.7816 60.6574C53.362 60.6574 51.9209 61.5376 50.5029 62.4669C49.358 63.2179 48.2378 64.018 47.0945 64.018C45.9496 64.018 44.8294 63.2179 43.6846 62.4669C42.2835 61.548 40.8578 60.6782 39.4568 60.6574ZM43.8836 38.1201H39.8179V52.3508C39.8179 52.7605 39.4722 53.093 39.0464 53.093C38.6205 53.093 38.2749 52.7605 38.2749 52.3508V38.1201H36.6285V59.7668H43.8836V38.1201ZM44.8093 54.7837V56.4818C45.5716 56.8559 46.3354 57.1008 47.0945 57.1008C48.5125 57.1008 49.9536 56.2221 51.3716 55.2914C52.5165 54.5403 53.6367 53.7402 54.7816 53.7402C55.9249 53.7402 57.0451 54.5403 58.19 55.2914C59.608 56.2221 61.0491 57.1008 62.4687 57.1008C63.882 57.1008 65.3787 56.2221 66.8214 55.2958C67.4524 54.8906 68.0743 54.4854 68.6806 54.1811C69.1914 53.9272 69.682 53.7402 70.1557 53.7402C70.9719 53.7402 71.8314 54.0697 72.6507 54.5061C74.0085 55.232 75.249 56.2711 76.0267 56.9197C76.3476 57.1869 76.8352 57.1543 77.1145 56.844C77.3938 56.5353 77.3583 56.0662 77.0358 55.7976C76.2011 55.1014 74.8602 53.9896 73.399 53.2088C72.339 52.6432 71.2126 52.2558 70.1557 52.2558C68.8581 52.2558 67.4138 53.1301 65.965 54.0608C64.7923 54.8149 63.6166 55.6164 62.4687 55.6164C61.3238 55.6164 60.2036 54.8149 59.0587 54.0653C57.6407 53.1346 56.1996 52.2558 54.7816 52.2558C53.362 52.2558 51.9209 53.1346 50.5029 54.0653C49.358 54.8149 48.2378 55.6164 47.0945 55.6164C46.3276 55.6164 45.5716 55.2454 44.8093 54.7837ZM35.7027 55.4829V53.6912C35.0624 54.1039 34.4221 54.5462 33.7802 54.9114C33.0905 55.3047 32.4101 55.6164 31.7204 55.6164C30.5755 55.6164 29.4553 54.8149 28.3104 54.0653C26.8924 53.1346 25.4513 52.2558 24.0333 52.2558C22.6138 52.2558 21.1726 53.1346 19.7546 54.0653C18.6098 54.8149 17.4895 55.6164 16.3447 55.6164C15.1967 55.6164 14.0132 54.8134 12.8359 54.0608C11.3825 53.1301 9.93828 52.2558 8.65916 52.2558C7.6084 52.2558 6.50361 52.6447 5.46982 53.2132C4.04874 53.9955 2.75727 55.1088 1.95184 55.8079C1.63553 56.0811 1.61087 56.5516 1.89632 56.8559C2.18022 57.1602 2.66935 57.184 2.98566 56.9094C3.73091 56.2637 4.92051 55.2261 6.23512 54.5017C7.02512 54.0682 7.85836 53.7402 8.65916 53.7402C9.12514 53.7402 9.61117 53.9272 10.1188 54.1811C10.7252 54.4854 11.3485 54.8906 11.9811 55.2958C13.4284 56.2221 14.9328 57.1008 16.3447 57.1008C17.7642 57.1008 19.2053 56.2221 20.6233 55.2914C21.7682 54.5403 22.8884 53.7402 24.0333 53.7402C25.1766 53.7402 26.2968 54.5403 27.4417 55.2914C28.8597 56.2221 30.3008 57.1008 31.7204 57.1008C32.4918 57.1008 33.2664 56.8559 34.0379 56.4714C34.5934 56.1954 35.1473 55.8436 35.7027 55.4829ZM35.7027 47.0798V45.2897C35.0624 45.7023 34.4221 46.1432 33.7802 46.5083C33.0905 46.9017 32.4101 47.2149 31.7204 47.2149C30.5755 47.2149 29.4553 46.4133 28.3104 45.6622C26.8924 44.733 25.4513 43.8528 24.0333 43.8528C22.6138 43.8528 21.1726 44.733 19.7546 45.6622C18.6098 46.4133 17.4895 47.2149 16.3447 47.2149C15.1967 47.2149 14.0132 46.4119 12.8359 45.6578C11.3825 44.7286 9.93828 43.8528 8.65916 43.8528C7.6084 43.8528 6.50361 44.2417 5.46982 44.8117C4.04874 45.594 2.75727 46.7072 1.95184 47.4049C1.63553 47.6795 1.61087 48.1486 1.89632 48.4529C2.18022 48.7572 2.66935 48.7824 2.98566 48.5078C3.73091 47.8621 4.92051 46.8245 6.23512 46.1001C7.02512 45.6652 7.85836 45.3372 8.65916 45.3372C9.12514 45.3372 9.61117 45.5242 10.1188 45.7795C10.7252 46.0823 11.3485 46.489 11.9811 46.8943C13.4284 47.8205 14.9328 48.6993 16.3447 48.6993C17.7642 48.6993 19.2053 47.819 20.6233 46.8898C21.7682 46.1387 22.8884 45.3372 24.0333 45.3372C25.1766 45.3372 26.2968 46.1387 27.4417 46.8898C28.8597 47.819 30.3008 48.6993 31.7204 48.6993C32.4918 48.6993 33.2664 48.4544 34.0379 48.0699C34.5934 47.7923 35.1473 47.442 35.7027 47.0798ZM44.8093 46.3807V48.0803C45.5716 48.4529 46.3354 48.6993 47.0945 48.6993C48.5125 48.6993 49.9536 47.819 51.3716 46.8898C52.5165 46.1387 53.6367 45.3372 54.7816 45.3372C55.9249 45.3372 57.0451 46.1387 58.19 46.8898C59.608 47.819 61.0491 48.6993 62.4687 48.6993C63.882 48.6993 65.3787 47.8205 66.8214 46.8928C67.4524 46.489 68.0743 46.0823 68.6806 45.7795C69.1914 45.5242 69.682 45.3372 70.1557 45.3372C70.9719 45.3372 71.8314 45.6682 72.6507 46.1046C74.0085 46.8305 75.249 47.8695 76.0267 48.5167C76.3476 48.7854 76.8352 48.7512 77.1145 48.4425C77.3938 48.1322 77.3583 47.6632 77.0358 47.396C76.2011 46.6983 74.8602 45.588 73.399 44.8072C72.339 44.2402 71.2126 43.8528 70.1557 43.8528C68.8581 43.8528 67.4138 44.7286 65.965 45.6593C64.7923 46.4119 63.6166 47.2149 62.4687 47.2149C61.3238 47.2149 60.2036 46.4133 59.0587 45.6622C57.6407 44.733 56.1996 43.8528 54.7816 43.8528C53.362 43.8528 51.9209 44.733 50.5029 45.6622C49.358 46.4133 48.2378 47.2149 47.0945 47.2149C46.3276 47.2149 45.5716 46.8438 44.8093 46.3807ZM39.4846 17.5808H41.0275V11.7829C41.0275 8.58107 43.7293 5.98193 47.0575 5.98193C50.3856 5.98193 53.0874 8.58107 53.0874 11.7829V38.3918C53.0874 40.7282 55.0593 42.6237 57.4864 42.6237C59.915 42.6237 61.8854 40.7282 61.8854 38.3918V8.72951C61.8854 8.31983 61.5398 7.98733 61.1139 7.98733C60.6881 7.98733 60.3424 8.31983 60.3424 8.72951V38.3918C60.3424 39.9088 59.0633 41.1393 57.4864 41.1393C55.911 41.1393 54.6304 39.9088 54.6304 38.3918V11.7829C54.6304 7.76169 51.2374 4.49756 47.0575 4.49756C42.8776 4.49756 39.4846 7.76169 39.4846 11.7829V17.5808ZM46.6131 34.3394L46.1502 37.2295H34.3604L33.899 34.3394H46.6131ZM48.3428 24.5782H32.1694V33.4488H48.3428V24.5782ZM46.755 23.6876H33.7571V21.8158H46.755V23.6876ZM35.4189 20.9251H45.0917V20.652C45.0917 19.4482 44.0765 18.4715 42.8251 18.4715H37.6855C36.4357 18.4715 35.4189 19.4482 35.4189 20.652V20.9251Z" fill="black"/>
</svg>
