<svg width="64" height="78" viewBox="0 0 64 78" fill="none" xmlns="http://www.w3.org/2000/svg">
<g clip-path="url(#clip0_2_13)">
<path d="M23.2407 10.392V17.58C22.8881 17.5585 22.5572 17.2963 22.1938 17.3402L18.0272 17.34C17.6487 17.2956 17.3302 17.5587 16.9803 17.58V10.392C17.2866 10.5928 22.0886 10.4443 22.5393 10.4881C22.7756 10.4871 23.0109 10.4549 23.2407 10.392Z" fill="black"/>
<path d="M16.9804 9.14397C17.6695 9.29905 18.3737 9.34748 19.0741 9.28797H21.1469H22.5393C23.093 9.2823 23.6227 9.02762 24.0143 8.57876C24.4059 8.1299 24.6281 7.52274 24.633 6.88798V5.11198C24.6314 4.47603 24.4103 3.86666 24.018 3.41697C23.6257 2.96729 23.0941 2.71383 22.5393 2.71198H17.6818C17.127 2.71382 16.5953 2.96727 16.203 3.41696C15.8107 3.86665 15.5896 4.47602 15.588 5.11198V6.88798C15.59 7.38238 15.7246 7.86411 15.9737 8.26772C16.2228 8.67134 16.5743 8.97728 16.9804 9.14397Z" fill="black"/>
<path d="M26.1091 20.868C25.1704 20.304 23.6324 19.2545 22.7068 18.696C22.5686 18.376 18.3315 18.6064 18.0272 18.5399C17.6776 18.4951 17.2746 18.88 16.9804 19.0319C16.3305 19.4188 14.7773 20.466 14.1119 20.8679C12.9006 21.6786 11.8989 22.8435 11.2091 24.2434C10.5193 25.6434 10.1663 27.2283 10.1862 28.8359V66.912C10.153 68.2191 10.5727 69.4882 11.3534 70.4416C12.1342 71.395 13.2126 71.9553 14.3527 72H25.8579C26.9997 71.958 28.0805 71.3989 28.8634 70.4452C29.6463 69.4915 30.0676 68.221 30.0349 66.912V28.836C30.0547 27.2284 29.7017 25.6435 29.012 24.2435C28.3222 22.8435 27.3204 21.6787 26.1091 20.868ZM13.3268 53.664C13.3828 53.377 13.5286 53.1234 13.7368 52.9513C13.9449 52.7792 14.2008 52.7004 14.4561 52.73C14.7114 52.7596 14.9484 52.8954 15.1223 53.1117C15.2962 53.3281 15.3948 53.61 15.3996 53.9041C15.4024 54.0741 15.3736 54.2428 15.3154 54.3991C15.2571 54.5555 15.1705 54.6959 15.0614 54.8111C14.9523 54.9262 14.8232 55.0136 14.6825 55.0674C14.5418 55.1212 14.3927 55.1401 14.2452 55.123C14.0976 55.1059 13.9549 55.0532 13.8264 54.9682C13.6979 54.8833 13.5866 54.7681 13.4998 54.6302C13.413 54.4923 13.3527 54.3349 13.3229 54.1684C13.2931 54.0018 13.2944 53.8299 13.3268 53.664ZM14.3527 51.468C14.1108 51.4704 13.8759 51.3758 13.6885 51.2004C13.5011 51.0251 13.3731 50.7801 13.3268 50.508V36.852C13.3731 36.5799 13.5011 36.3349 13.6885 36.1596C13.8759 35.9843 14.1108 35.8896 14.3527 35.892C14.6301 35.893 14.8959 36.0197 15.0921 36.2445C15.2882 36.4694 15.3988 36.774 15.3996 37.092V50.268C15.3988 50.586 15.2882 50.8907 15.0921 51.1155C14.8959 51.3403 14.6301 51.4671 14.3527 51.468Z" fill="black"/>
<path d="M13.3163 17.58H15.9335V12.288H13.3163C10.5139 12.2743 10.5122 17.5858 13.3163 17.58Z" fill="black"/>
<path d="M26.3604 12.288H24.2875C24.2879 13.7235 24.2873 16.1448 24.2875 17.58H26.3499C25.9022 16.7925 25.6647 15.8723 25.6665 14.9322C25.6684 13.9922 25.9095 13.0733 26.3604 12.288Z" fill="black"/>
<path d="M29.8359 11.352C29.0125 11.3637 28.2262 11.7469 27.6475 12.4185C27.0689 13.0901 26.7444 13.9961 26.7444 14.94C26.7444 15.884 27.0689 16.7899 27.6476 17.4615C28.2263 18.1331 29.0126 18.5163 29.836 18.528C30.6594 18.5163 31.4457 18.1331 32.0244 17.4615C32.6031 16.7898 32.9275 15.8839 32.9275 14.9399C32.9275 13.996 32.603 13.09 32.0243 12.4184C31.4456 11.7468 30.6594 11.3637 29.8359 11.352Z" fill="black"/>
<path d="M50.9515 19.716C47.7166 19.716 45.0785 23.748 45.0785 28.704C45.3635 40.6171 56.5306 40.625 56.814 28.7039C56.814 23.748 54.1863 19.716 50.9515 19.716ZM52.6265 32.172H49.266C48.9883 32.172 48.7221 32.0456 48.5257 31.8205C48.3294 31.5955 48.2191 31.2903 48.2191 30.972C48.2191 30.6537 48.3294 30.3485 48.5257 30.1235C48.7221 29.8984 48.9883 29.772 49.266 29.772H52.6265C52.9012 29.7771 53.1632 29.9057 53.3559 30.1302C53.5486 30.3547 53.6566 30.6571 53.6566 30.972C53.6566 31.287 53.5486 31.5893 53.3559 31.8138C53.1632 32.0383 52.9012 32.1669 52.6265 32.172ZM49.266 24.996C49.3283 25.0078 52.9629 24.9613 52.8882 25.032C53.1314 25.1093 53.3423 25.2844 53.4821 25.5253C53.622 25.7662 53.6814 26.0568 53.6497 26.3438C53.6179 26.6309 53.497 26.8952 53.3091 27.0884C53.1212 27.2816 52.8788 27.3908 52.6265 27.396H49.266C48.9919 27.3899 48.7308 27.2608 48.5388 27.0364C48.3469 26.812 48.2393 26.5103 48.2393 26.196C48.2393 25.8817 48.3469 25.58 48.5388 25.3556C48.7308 25.1312 48.9919 25.0021 49.266 24.996Z" fill="black"/>
<path d="M49.9045 38.784V58.848C49.9028 60.4292 49.354 61.945 48.3787 63.063C47.4033 64.1811 46.0809 64.81 44.7015 64.812H43.0265C41.6471 64.81 40.3247 64.181 39.3494 63.063C38.374 61.945 37.8253 60.4292 37.8236 58.848V18.516C37.8235 17.2935 37.4141 16.1176 36.6796 15.2311C35.9452 14.3446 34.9419 13.8152 33.8768 13.752C34.0574 14.5386 34.0574 15.3654 33.8768 16.152C34.3849 16.217 34.8543 16.4938 35.196 16.9296C35.5376 17.3655 35.7276 17.9301 35.7298 18.516V58.848C35.7332 61.0651 36.503 63.1903 37.8707 64.758C39.2383 66.3257 41.0923 67.2082 43.0265 67.212H44.7015C46.6357 67.2082 48.4897 66.3257 49.8574 64.758C51.225 63.1903 51.9949 61.0651 51.9982 58.848V38.784C51.3075 38.9458 50.5953 38.9458 49.9045 38.784Z" fill="black"/>
</g>
<defs>
<clipPath id="clip0_2_13">
<rect width="64" height="78" fill="white"/>
</clipPath>
</defs>
</svg>
