<svg width="102" height="89" viewBox="0 0 102 89" fill="none" xmlns="http://www.w3.org/2000/svg">
<path d="M35.569 73.6032H30.7567C29.6061 73.6032 28.6644 72.8021 28.6644 71.8232C28.6644 70.8442 29.6061 70.0432 30.7567 70.0432H35.569C36.7197 70.0432 37.6613 70.8442 37.6613 71.8232C37.6613 72.8024 36.8242 73.6032 35.569 73.6032Z" fill="black"/>
<path d="M61.5137 73.6032H50.9475C49.7968 73.6032 48.8552 72.8021 48.8552 71.8232C48.8552 70.8442 49.7968 70.0432 50.9475 70.0432H61.5137C62.6643 70.0432 63.606 70.8442 63.606 71.8232C63.6063 72.8024 62.6647 73.6032 61.514 73.6032H61.5137Z" fill="black"/>
<path d="M55.2367 81.5242H44.6706C43.5199 81.5242 42.5782 80.7231 42.5782 79.7442C42.5782 78.7652 43.5199 77.9642 44.6706 77.9642H55.2367C56.3874 77.9642 57.3291 78.7652 57.3291 79.7442C57.3294 80.7231 56.3878 81.5242 55.2371 81.5242H55.2367Z" fill="black"/>
<path d="M37.5566 62.9232H17.1565C16.0058 62.9232 15.0642 62.1221 15.0642 61.1432C15.0642 60.1642 16.0058 59.3632 17.1565 59.3632H37.5566C38.7073 59.3632 39.6489 60.1642 39.6489 61.1432C39.6489 62.1224 38.7073 62.9232 37.5566 62.9232Z" fill="black"/>
<path d="M87.2491 48.6831H51.4705V40.4061C51.8891 40.4951 52.4122 40.584 52.8307 40.584C53.3538 40.584 53.8769 40.4951 54.2954 40.4061C57.5384 39.694 60.1538 38.4483 62.0371 36.7572C67.0588 32.4851 67.0588 25.7212 67.0588 25.3652C67.0588 24.3863 66.1172 23.5852 64.9665 23.5852C64.6525 23.5852 56.7017 23.5852 51.5757 27.8574C49.7974 29.3702 48.5417 31.2395 47.7051 33.4645C43.939 30.1716 38.4989 30.1717 38.2896 30.1717C37.139 30.1717 36.1973 30.9727 36.1973 31.9517C36.1973 32.2188 36.1973 37.6477 39.8589 41.2077C41.3236 42.6316 43.2064 43.6105 45.6127 44.2337C46.0313 44.3227 46.4498 44.4116 46.868 44.4116H47.1819V48.5945H9.83414C8.68345 48.5945 7.74182 49.3955 7.74182 50.3745C7.74182 51.3534 8.68345 52.1545 9.83414 52.1545H87.2498C88.4004 52.1545 89.3421 51.3534 89.3421 50.3745C89.3421 49.3955 88.4004 48.6834 87.2498 48.6834L87.2491 48.6831ZM51.4705 35.5111C52.0982 33.3751 53.2488 31.684 54.609 30.4383C57.0153 28.3911 60.4674 27.6794 62.6642 27.3233C62.3502 29.1922 61.409 32.1294 59.0027 34.1761C57.538 35.4222 55.5502 36.3122 53.0398 36.8461C52.3076 37.024 51.8891 36.6682 51.6796 36.579C51.6799 36.4901 51.2614 36.134 51.4705 35.5111ZM46.9722 40.9401L46.8677 41.029C45.2984 40.584 43.9383 39.9611 42.9971 38.9818C41.5324 37.5579 40.9048 35.5997 40.5907 34.1758C41.9509 34.4429 43.7292 35.0658 44.9844 36.3118C45.926 37.2018 46.6582 38.6258 47.0767 40.2279C47.2858 40.495 47.1813 40.7622 46.9722 40.9401Z" fill="black"/>
<path d="M75.0091 20.2032C72.8122 18.3342 70.5104 16.821 67.895 15.486C67.7905 15.3971 67.6859 15.3081 67.581 15.3081C67.4765 15.2192 67.2671 15.2192 67.1625 15.1302C61.8272 12.5492 55.864 11.2142 49.5871 11.2142C39.9624 11.2142 30.9655 14.4181 24.1655 20.2032C23.3284 20.9153 23.3284 21.9832 24.1655 22.6953C25.0025 23.4074 26.2578 23.4074 27.0949 22.6953C28.5596 21.4492 30.2333 20.2925 31.9071 19.3132L33.7904 22.0721C34.2089 22.606 34.8365 22.9621 35.5687 22.9621C35.8826 22.9621 36.3008 22.8732 36.6148 22.695C37.661 22.161 37.975 21.0928 37.347 20.2921L35.4637 17.5332C39.1253 15.9311 43.2054 15.0411 47.3899 14.8632V17.9782C47.3899 18.9571 48.3315 19.7582 49.4822 19.7582C50.6329 19.7582 51.5745 18.9571 51.5745 17.9782V14.8632C55.7592 15.1303 59.8393 16.0204 63.5007 17.5332L61.7224 20.2032C61.0948 21.0932 61.5134 22.1611 62.4546 22.6061C62.7686 22.7839 63.1868 22.8732 63.5008 22.8732C64.2329 22.8732 64.9655 22.5171 65.2791 21.9832L67.0574 19.3132C68.7311 20.2921 70.4049 21.4492 71.8696 22.6953C72.2881 23.0514 72.8112 23.2293 73.3343 23.2293C73.8574 23.2293 74.3805 23.0514 74.799 22.6953C75.8462 22.0724 75.8462 20.9153 75.0091 20.2032Z" fill="black"/>
<path d="M43.6243 73.1582C42.4736 73.1582 41.532 72.3571 41.532 71.3782V59.7191C41.532 58.7402 42.4736 57.9391 43.6243 57.9391H46.3442C50.4243 57.9391 52.8302 59.897 52.8302 63.2791C52.8302 65.4152 51.7841 67.9963 46.6578 67.9963H45.7162V71.3784C45.7165 72.3574 44.7752 73.1582 43.6242 73.1582H43.6243ZM45.7166 64.4361H46.6582C48.646 64.4361 48.646 64.169 48.646 63.279C48.646 62.1219 48.332 61.499 46.3447 61.499H45.717L45.7166 64.4361Z" fill="black"/>
<path d="M55.969 68.1741C54.8183 68.1741 53.8766 67.373 53.8766 66.3941V55.0021C53.8766 54.0232 54.8183 53.2221 55.969 53.2221C57.1196 53.2221 58.0613 54.0232 58.0613 55.0021V66.4831C58.0613 67.3728 57.1196 68.1739 55.969 68.1739V68.1741Z" fill="black"/>
<path d="M65.1752 68.1741C64.0245 68.1741 63.0829 67.373 63.0829 66.3941V55.0021C63.0829 54.0232 64.0245 53.2221 65.1752 53.2221C66.3259 53.2221 67.2675 54.0232 67.2675 55.0021V66.4831C67.2675 67.3728 66.3259 68.1739 65.1752 68.1739V68.1741Z" fill="black"/>
<path d="M64.8613 62.4782H56.0736C54.9229 62.4782 53.9813 61.6771 53.9813 60.6982C53.9813 59.7192 54.9229 58.9182 56.0736 58.9182H64.8613C66.012 58.9182 66.9536 59.7192 66.9536 60.6982C66.9536 61.6774 66.012 62.4782 64.8613 62.4782Z" fill="black"/>
<path d="M98.2337 64.5251C98.6523 63.4573 98.8613 62.3001 98.8613 61.143V27.768C98.8613 23.8519 96.3505 20.292 92.3754 18.423L55.7599 1.335C51.9938 -0.445 47.4951 -0.445 43.729 1.335L7.11355 18.423C3.03345 20.2922 0.522583 23.8522 0.522583 27.768V61.232C0.522583 65.1481 3.03345 68.708 7.00858 70.577L43.6241 87.665C45.5073 88.555 47.5997 89 49.692 89C51.7843 89 53.8766 88.555 55.7599 87.665L68.9414 81.5239C72.0799 85.9739 77.7292 88.9999 84.2153 88.9999C94.0492 88.9999 102 82.236 102 73.8699C102 70.3991 100.535 67.1063 98.2339 64.5249L98.2337 64.5251ZM93.3166 69.5091L84.9474 80.1891C84.6334 80.6341 84.1103 80.9012 83.4826 80.9901H83.1687C82.6456 80.9901 82.227 80.8123 81.8085 80.5451L75.5315 76.0951C74.6945 75.4723 74.4854 74.3151 75.2176 73.603C75.9497 72.8909 77.3099 72.713 78.147 73.3359L82.6456 76.5398L89.7597 67.5508C90.3873 66.7497 91.7475 66.483 92.6891 67.0169C93.6307 67.5511 93.9446 68.7079 93.3167 69.509L93.3166 69.5091ZM94.6768 61.2321V61.6771C91.7474 59.8971 88.1908 58.7399 84.2152 58.7399C74.3813 58.7399 66.4305 65.5038 66.4305 73.8699C66.4305 75.3828 66.7445 76.896 67.1627 78.231L53.6673 84.5499C51.1564 85.7071 48.1225 85.7071 45.6121 84.5499L8.99656 67.4619C6.27664 66.2158 4.60287 63.813 4.60287 61.2319L4.60253 27.7679C4.60253 25.1869 6.2763 22.784 8.89169 21.5379L45.7164 4.44993C46.9716 3.82704 48.3318 3.55993 49.692 3.55993C51.0522 3.55993 52.4119 3.82704 53.6676 4.44993L90.2831 21.5379C93.003 22.784 94.6768 25.1869 94.6768 27.7679L94.6768 61.2321Z" fill="black"/>
</svg>
