<svg width="49" height="95" viewBox="0 0 49 95" fill="none" xmlns="http://www.w3.org/2000/svg">
<path d="M33.4 9C31.5 7.1 29 6 26.3 6C20.8 6 16.3 10.5 16.3 16.1V58C12.6 61 10.4 65.5 10.4 70.3C10.3 78.9 17.3 86 26 86C34.7 86 41.7 78.9 41.7 70.3C41.7 65.7 39.7 61.4 36.3 58.5V16.1C36.3 13.4 35.3 10.8 33.4 9ZM38.3 70.3C38.3 77.1 32.8 82.6 26 82.6C19.2 82.6 13.7 77 13.7 70.3C13.7 66.3 15.6 62.6 18.9 60.3L19 60.2C19.1 60.1 19.2 60 19.2 59.9C19.3 59.8 19.3 59.7 19.4 59.6C19.5 59.5 19.5 59.4 19.5 59.3C19.5 59.2 19.6 59.1 19.6 59C19.6 58.9 19.6 58.9 19.6 58.9V16.1C19.6 12.5 22.6 9.5 26.2 9.5C28 9.5 29.6 10.2 30.9 11.5C32.1 12.7 32.8 14.4 32.8 16.1V59.2V59.3C32.8 59.4 32.8 59.5 32.9 59.6C32.9 59.7 33 59.8 33 59.9C33 60 33.1 60.1 33.2 60.2C33.3 60.3 33.3 60.4 33.4 60.5C33.4 60.5 33.4 60.6 33.5 60.6C36.5 62.9 38.3 66.4 38.3 70.3Z" fill="black"/>
<path d="M28.5 62.9V31.1C28.5 29.9 27.5 28.8 26.2 28.8C25 28.8 23.9 29.8 23.9 31.1V62.7C20.6 63.6 18.1 66.6 18.1 70.2C18.1 74.5 21.6 78 25.9 78C30.2 78 33.7 74.5 33.7 70.2C33.8 66.8 31.6 63.9 28.5 62.9Z" fill="black"/>
</svg>
