<svg width="117" height="95" viewBox="0 0 117 95" fill="none" xmlns="http://www.w3.org/2000/svg">
<path d="M2.87535 38.517C3.54518 39.3747 4.50667 39.9681 5.58499 40.1895C6.66331 40.4109 7.78686 40.2455 8.75135 39.7234C16.1402 35.7682 34.8461 28.5573 55.9969 41.9617C66.8467 48.8377 77.2226 51.137 86.25 51.137C95.4738 51.0655 104.54 48.7856 112.66 44.4956C113.193 44.2137 113.663 43.8314 114.044 43.3708C114.425 42.9101 114.709 42.3801 114.881 41.8113C115.052 41.2424 115.107 40.646 115.043 40.0562C114.979 39.4665 114.796 38.895 114.505 38.3747C114.215 37.8544 113.822 37.3955 113.351 37.0244C112.879 36.6533 112.336 36.3774 111.755 36.2124C111.174 36.0475 110.566 35.9968 109.965 36.0632C109.363 36.1297 108.782 36.312 108.253 36.5997C100.864 40.5553 82.159 47.766 61.0071 34.3609C36.0825 18.5648 13.6513 26.9218 4.34916 31.8236C3.76413 32.1316 3.25429 32.5604 2.85485 33.0805C2.45542 33.6006 2.17593 34.1995 2.0357 34.8359C1.89546 35.4722 1.89783 36.1309 2.04265 36.7663C2.18746 37.4016 2.47125 37.9986 2.87442 38.5159L2.87535 38.517Z" fill="black"/>
<path d="M8.74591 60.5863C17.8519 55.6837 28.4013 54.003 38.622 55.8268C39.2202 55.9365 39.8347 55.9291 40.4301 55.805C41.0254 55.6809 41.5898 55.4425 42.0908 55.1036C42.5917 54.7646 43.0193 54.3319 43.349 53.8302C43.6786 53.3285 43.9037 52.7679 44.0114 52.1805C44.1191 51.5932 44.1072 50.9907 43.9764 50.4079C43.8455 49.8251 43.5984 49.2734 43.2492 48.7846C42.9 48.2959 42.4556 47.8797 41.9416 47.56C41.4276 47.2404 40.8542 47.0237 40.2544 46.9222C24.1967 43.9882 10.9574 49.208 4.34517 52.6861C3.81255 52.9675 3.34193 53.3494 2.96035 53.8097C2.57877 54.2701 2.29377 54.7998 2.12174 55.3686C1.94971 55.9373 1.89403 56.5338 1.95791 57.1237C2.0218 57.7136 2.20398 58.2852 2.49399 58.8059C2.784 59.3265 3.17611 59.7858 3.64777 60.1573C4.11944 60.5288 4.66135 60.8053 5.24236 60.9707C5.82337 61.1362 6.432 61.1874 7.03327 61.1214C7.63454 61.0555 8.21657 60.8736 8.74591 60.5863Z" fill="black"/>
<path d="M8.75637 18.8658C15.2319 15.3475 22.497 13.4603 29.8997 13.3735C37.3025 13.2866 44.6115 15.0029 51.171 18.3684C51.756 18.6691 52.3999 18.8434 53.0594 18.8797C53.7189 18.9159 54.3786 18.8132 54.9942 18.5785C55.6098 18.3437 56.167 17.9824 56.6282 17.5188C57.0894 17.0551 57.4439 16.5 57.6679 15.8908L57.6742 15.8735C58.046 14.8396 58.0227 13.7085 57.6085 12.6902C57.1943 11.6719 56.4175 10.8355 55.4221 10.3362C32.775 -1.05824 12.9505 6.43424 4.34516 10.9654C3.76119 11.2739 3.25246 11.703 2.85408 12.2231C2.4557 12.7431 2.17717 13.3417 2.03771 13.9776C1.89825 14.6134 1.90118 15.2714 2.0463 15.906C2.19143 16.5407 2.47529 17.1369 2.87829 17.6535C3.5485 18.5111 4.50991 19.105 5.58827 19.3274C6.66663 19.5498 7.79056 19.386 8.75637 18.8658Z" fill="black"/>
<path d="M84.6576 30.2553C85.1934 30.2717 85.7246 30.2797 86.2512 30.2795C95.474 30.2104 104.539 27.9283 112.656 23.6326C113.189 23.3519 113.66 22.9705 114.042 22.5104C114.424 22.0503 114.71 21.5205 114.882 20.9517C115.055 20.3829 115.11 19.7862 115.046 19.1961C114.983 18.606 114.8 18.0342 114.51 17.5136C114.219 16.9929 113.827 16.5338 113.355 16.1626C112.882 15.7915 112.34 15.5156 111.758 15.351C111.177 15.1864 110.568 15.1362 109.967 15.2034C109.365 15.2707 108.784 15.4539 108.255 15.7426C101.127 19.5576 93.0956 21.4534 84.9779 21.237C83.7646 21.2058 82.588 21.6458 81.704 22.4612C80.8201 23.2765 80.3004 24.4013 80.2582 25.5905C80.2159 26.7798 80.6545 27.9372 81.4785 28.8109C82.3025 29.6846 83.4451 30.2037 84.6576 30.2553Z" fill="black"/>
<path d="M114.128 58.6744C113.46 57.8159 112.499 57.2212 111.422 56.9986C110.344 56.7761 109.22 56.9404 108.256 57.4617C103.018 60.2931 97.2562 62.0703 91.3086 62.6891C85.3609 63.3078 79.3471 62.7556 73.6201 61.0649C72.5932 60.7609 71.4902 60.8186 70.5023 61.2283C69.5143 61.6379 68.7037 62.3735 68.2109 63.3077L68.2054 63.318C67.8921 63.9028 67.7134 64.5478 67.6819 65.2076C67.6503 65.8674 67.7668 66.5259 68.023 67.1368C68.2792 67.7477 68.6689 68.2961 69.1647 68.7433C69.6605 69.1905 70.2503 69.5257 70.8925 69.7252C75.8661 71.2331 81.0423 72.0011 86.2482 72.0036C95.4717 71.932 104.538 69.6516 112.657 65.3609C113.243 65.0542 113.753 64.6261 114.153 64.1065C114.553 63.5868 114.832 62.988 114.972 62.3517C115.112 61.7154 115.109 61.0569 114.964 60.4218C114.818 59.7868 114.533 59.1905 114.128 58.6744Z" fill="black"/>
<path d="M80.6937 83.4645C73.6539 82.4738 66.9282 79.9553 61.0071 76.0924C36.0827 60.2962 13.6514 68.6533 4.34922 73.5551C3.76419 73.863 3.25435 74.2919 2.85491 74.812C2.45548 75.332 2.17599 75.931 2.03576 76.5673C1.89552 77.2037 1.8979 77.8623 2.04271 78.4977C2.18752 79.1331 2.47131 79.7301 2.87448 80.2474L2.8754 80.2485C3.54403 81.1052 4.50374 81.6984 5.58036 81.9205C6.65697 82.1427 7.77914 81.979 8.7432 81.4593C16.1264 77.505 34.8382 70.2838 55.9969 83.6931C63.0436 88.2841 71.0503 91.2678 79.4282 92.4247C80.0299 92.5097 80.6429 92.4773 81.2318 92.3293C81.8207 92.1813 82.3739 91.9207 82.8597 91.5623C83.3456 91.2039 83.7543 90.755 84.0626 90.2412C84.3708 89.7274 84.5724 89.1589 84.6558 88.5685C84.7392 87.978 84.7027 87.3772 84.5485 86.8007C84.3943 86.2241 84.1253 85.6831 83.7571 85.2088C83.3889 84.7344 82.9287 84.3362 82.403 84.0368C81.8773 83.7375 81.2964 83.5429 80.6937 83.4645Z" fill="black"/>
<path d="M100.763 91.0678C104.091 91.0678 106.788 88.423 106.788 85.1605C106.788 81.8981 104.091 79.2533 100.763 79.2533C97.4357 79.2533 94.7383 81.8981 94.7383 85.1605C94.7383 88.423 97.4357 91.0678 100.763 91.0678Z" fill="black"/>
<path d="M68.2724 28.2534C71.5999 28.2534 74.2973 25.6086 74.2973 22.3462C74.2973 19.0837 71.5999 16.4389 68.2724 16.4389C64.945 16.4389 62.2476 19.0837 62.2476 22.3462C62.2476 25.6086 64.945 28.2534 68.2724 28.2534Z" fill="black"/>
<path d="M55.3546 62.9515C58.6821 62.9515 61.3795 60.3068 61.3795 57.0443C61.3795 53.7818 58.6821 51.137 55.3546 51.137C52.0272 51.137 49.3298 53.7818 49.3298 57.0443C49.3298 60.3068 52.0272 62.9515 55.3546 62.9515Z" fill="black"/>
</svg>
